# xmcd
#
# Track frame offsets: 
#        150
#        15803
#        29453
#        44034
#        63795
#        89258
#        108458
#        128596
#        149791
#        170618
#        189031
#
# Disc length: 2904 seconds
#
# Revision: 1
# Processed by: cddbd v1.5.2PL0 Copyright (c) Steve Scherf et al.
# Submitted via: ExactAudioCopy v1.0b3
#
DISCID=8d0b560b
DTITLE=狐火 - 「続マイハツルア
DYEAR=1900
DGENRE=Hip-Hop
TTITLE0=ロースタンダード
TTITLE1=ベロニカ
TTITLE2=ディナーバイキングが喉を通らない
TTITLE3=頼んだ焼き魚がまだ来ない
TTITLE4=ギュウニュー
TTITLE5=来年こそロックインジャパン
TTITLE6=時には起こせるムーブメント
TTITLE7=自動ドア開いてくれ
TTITLE8=パラレルワールド feat,仮谷せいら
TTITLE9=続マイハツルア
TTITLE10=舞っていて
EXTD=
EXTT0=
EXTT1=
EXTT2=
EXTT3=
EXTT4=
EXTT5=
EXTT6=
EXTT7=
EXTT8=
EXTT9=
EXTT10=
PLAYORDER=
